<mxfile host="app.diagrams.net" agent="Mozilla/5.0 (Windows NT 10.0; Win64; x64; rv:132.0) Gecko/20100101 Firefox/132.0" version="24.8.6">
  <diagram name="Seite-1" id="28qFqkmBF0kh-jeH-d2V">
    <mxGraphModel dx="1024" dy="544" grid="1" gridSize="10" guides="1" tooltips="1" connect="1" arrows="1" fold="1" page="1" pageScale="1" pageWidth="827" pageHeight="1169" math="0" shadow="0">
      <root>
        <mxCell id="0" />
        <mxCell id="1" parent="0" />
        <mxCell id="VOcekQ61qDE9arkaoCTb-26" value="Zahlung abwickeln" style="rounded=1;whiteSpace=wrap;html=1;labelPosition=center;verticalLabelPosition=middle;align=left;verticalAlign=top;spacingLeft=20;spacingTop=10;&#xa;absoluteArcSize=1;arcSize=10;fontStyle=1;fontSize=14;fillColor=default;" parent="1" vertex="1">
          <mxGeometry x="20" y="140" width="790" height="400" as="geometry" />
        </mxCell>
        <mxCell id="VOcekQ61qDE9arkaoCTb-2" value="Start" style="ellipse;fillColor=strokeColor;html=1;verticalAlign=top;align=center;spacingLeft=0;labelPosition=center;verticalLabelPosition=bottom;" parent="1" vertex="1">
          <mxGeometry x="69" y="285" width="30" height="30" as="geometry" />
        </mxCell>
        <mxCell id="VOcekQ61qDE9arkaoCTb-3" value="&lt;div&gt;Zahlungart&lt;/div&gt;&lt;div&gt;auswÃ¤hlen&lt;/div&gt;" style="rounded=1;whiteSpace=wrap;html=1;fontStyle=1" parent="1" vertex="1">
          <mxGeometry x="159" y="270" width="100" height="60" as="geometry" />
        </mxCell>
        <mxCell id="VOcekQ61qDE9arkaoCTb-5" value="&lt;div&gt;Geld&lt;/div&gt;&lt;div&gt;einwerfen&lt;/div&gt;" style="rounded=1;whiteSpace=wrap;html=1;fontStyle=1" parent="1" vertex="1">
          <mxGeometry x="499" y="270" width="100" height="60" as="geometry" />
        </mxCell>
        <mxCell id="VOcekQ61qDE9arkaoCTb-6" value="&lt;div&gt;Karte&lt;/div&gt;&lt;div&gt;einstecken&lt;/div&gt;" style="rounded=1;whiteSpace=wrap;html=1;fontStyle=1" parent="1" vertex="1">
          <mxGeometry x="299" y="170" width="100" height="60" as="geometry" />
        </mxCell>
        <mxCell id="VOcekQ61qDE9arkaoCTb-7" value="&lt;div&gt;PIN&lt;/div&gt;&lt;div&gt;eingeben&lt;/div&gt;" style="rounded=1;whiteSpace=wrap;html=1;fontStyle=1" parent="1" vertex="1">
          <mxGeometry x="499" y="170" width="100" height="60" as="geometry" />
        </mxCell>
        <mxCell id="VOcekQ61qDE9arkaoCTb-8" value="Wechselgeld ausgeben" style="rounded=1;whiteSpace=wrap;html=1;fontStyle=1" parent="1" vertex="1">
          <mxGeometry x="650" y="370" width="100" height="60" as="geometry" />
        </mxCell>
        <mxCell id="VOcekQ61qDE9arkaoCTb-9" value="" style="endArrow=openThin;html=1;rounded=0;endFill=0;endSize=12;" parent="1" source="VOcekQ61qDE9arkaoCTb-2" target="VOcekQ61qDE9arkaoCTb-3" edge="1">
          <mxGeometry width="50" height="50" relative="1" as="geometry">
            <mxPoint x="99" y="410" as="sourcePoint" />
            <mxPoint x="209" y="410" as="targetPoint" />
          </mxGeometry>
        </mxCell>
        <mxCell id="VOcekQ61qDE9arkaoCTb-10" value="" style="endArrow=openThin;html=1;rounded=0;endFill=0;endSize=12;exitX=0.5;exitY=1;exitDx=0;exitDy=0;" parent="1" source="VOcekQ61qDE9arkaoCTb-5" target="VOcekQ61qDE9arkaoCTb-30" edge="1">
          <mxGeometry width="50" height="50" relative="1" as="geometry">
            <mxPoint x="260" y="320" as="sourcePoint" />
            <mxPoint x="549" y="385" as="targetPoint" />
          </mxGeometry>
        </mxCell>
        <mxCell id="VOcekQ61qDE9arkaoCTb-11" value="" style="endArrow=openThin;html=1;rounded=0;endFill=0;endSize=12;" parent="1" source="VOcekQ61qDE9arkaoCTb-3" target="VOcekQ61qDE9arkaoCTb-31" edge="1">
          <mxGeometry width="50" height="50" relative="1" as="geometry">
            <mxPoint x="59" y="430" as="sourcePoint" />
            <mxPoint x="333" y="300" as="targetPoint" />
          </mxGeometry>
        </mxCell>
        <mxCell id="VOcekQ61qDE9arkaoCTb-12" value="[Barzahlung]" style="endArrow=openThin;html=1;rounded=0;endFill=0;endSize=12;verticalAlign=bottom;labelBackgroundColor=none;" parent="1" source="VOcekQ61qDE9arkaoCTb-31" target="VOcekQ61qDE9arkaoCTb-5" edge="1">
          <mxGeometry width="50" height="50" relative="1" as="geometry">
            <mxPoint x="363" y="300" as="sourcePoint" />
            <mxPoint x="149" y="440" as="targetPoint" />
          </mxGeometry>
        </mxCell>
        <mxCell id="VOcekQ61qDE9arkaoCTb-13" value="[EC-Karte]" style="endArrow=openThin;html=1;rounded=0;endFill=0;endSize=12;labelPosition=right;verticalLabelPosition=middle;align=left;verticalAlign=middle;spacingLeft=4;labelBackgroundColor=none;" parent="1" source="VOcekQ61qDE9arkaoCTb-31" target="VOcekQ61qDE9arkaoCTb-6" edge="1">
          <mxGeometry width="50" height="50" relative="1" as="geometry">
            <mxPoint x="348.1485148514853" y="285.14851485148506" as="sourcePoint" />
            <mxPoint x="159" y="450" as="targetPoint" />
          </mxGeometry>
        </mxCell>
        <mxCell id="VOcekQ61qDE9arkaoCTb-14" value="" style="endArrow=openThin;html=1;rounded=0;endFill=0;endSize=12;" parent="1" source="VOcekQ61qDE9arkaoCTb-6" target="VOcekQ61qDE9arkaoCTb-7" edge="1">
          <mxGeometry width="50" height="50" relative="1" as="geometry">
            <mxPoint x="99" y="460" as="sourcePoint" />
            <mxPoint x="169" y="460" as="targetPoint" />
          </mxGeometry>
        </mxCell>
        <mxCell id="VOcekQ61qDE9arkaoCTb-15" value="[nicht passend&lt;br&gt;bezahlt]" style="endArrow=openThin;html=1;rounded=0;endFill=0;endSize=12;verticalAlign=bottom;labelBackgroundColor=none;" parent="1" source="VOcekQ61qDE9arkaoCTb-30" target="VOcekQ61qDE9arkaoCTb-8" edge="1">
          <mxGeometry width="50" height="50" relative="1" as="geometry">
            <mxPoint x="564" y="400" as="sourcePoint" />
            <mxPoint x="440" y="370" as="targetPoint" />
          </mxGeometry>
        </mxCell>
        <mxCell id="VOcekQ61qDE9arkaoCTb-16" value="[else]" style="endArrow=openThin;html=1;rounded=0;endFill=0;endSize=12;labelPosition=right;verticalLabelPosition=middle;align=left;verticalAlign=middle;spacingLeft=4;labelBackgroundColor=none;" parent="1" source="VOcekQ61qDE9arkaoCTb-30" target="VOcekQ61qDE9arkaoCTb-19" edge="1">
          <mxGeometry width="50" height="50" relative="1" as="geometry">
            <mxPoint x="549" y="415" as="sourcePoint" />
            <mxPoint x="390" y="380" as="targetPoint" />
          </mxGeometry>
        </mxCell>
        <mxCell id="VOcekQ61qDE9arkaoCTb-19" value="Ende" style="ellipse;html=1;shape=endState;fillColor=strokeColor;labelPosition=center;verticalLabelPosition=bottom;align=center;verticalAlign=top;" parent="1" vertex="1">
          <mxGeometry x="534" y="470" width="30" height="30" as="geometry" />
        </mxCell>
        <mxCell id="VOcekQ61qDE9arkaoCTb-20" value="Ende" style="ellipse;html=1;shape=endState;fillColor=strokeColor;labelPosition=center;verticalLabelPosition=bottom;align=center;verticalAlign=top;" parent="1" vertex="1">
          <mxGeometry x="729" y="185" width="30" height="30" as="geometry" />
        </mxCell>
        <mxCell id="VOcekQ61qDE9arkaoCTb-21" value="" style="endArrow=openThin;html=1;rounded=0;endFill=0;endSize=12;" parent="1" source="VOcekQ61qDE9arkaoCTb-7" target="VOcekQ61qDE9arkaoCTb-20" edge="1">
          <mxGeometry width="50" height="50" relative="1" as="geometry">
            <mxPoint x="590" y="200" as="sourcePoint" />
            <mxPoint x="394" y="310" as="targetPoint" />
          </mxGeometry>
        </mxCell>
        <mxCell id="VOcekQ61qDE9arkaoCTb-22" value="" style="endArrow=openThin;html=1;rounded=0;endFill=0;endSize=12;edgeStyle=orthogonalEdgeStyle;curved=1;exitX=0.5;exitY=1;exitDx=0;exitDy=0;entryX=1;entryY=0.5;entryDx=0;entryDy=0;" parent="1" source="VOcekQ61qDE9arkaoCTb-8" target="VOcekQ61qDE9arkaoCTb-19" edge="1">
          <mxGeometry width="50" height="50" relative="1" as="geometry">
            <mxPoint x="269" y="310" as="sourcePoint" />
            <mxPoint x="709" y="580" as="targetPoint" />
          </mxGeometry>
        </mxCell>
        <mxCell id="VOcekQ61qDE9arkaoCTb-30" value="" style="rhombus;" parent="1" vertex="1">
          <mxGeometry x="534" y="380" width="30" height="40" as="geometry" />
        </mxCell>
        <mxCell id="VOcekQ61qDE9arkaoCTb-31" value="" style="rhombus;" parent="1" vertex="1">
          <mxGeometry x="333" y="280" width="30" height="40" as="geometry" />
        </mxCell>
      </root>
    </mxGraphModel>
  </diagram>
</mxfile>
